<svg xmlns="http://www.w3.org/2000/svg" viewBox="0 0 64 64">
  <defs>
    <linearGradient id="grad" x1="0%" y1="0%" x2="100%" y2="100%">
      <stop offset="0%" style="stop-color:#7c3aed"/>
      <stop offset="50%" style="stop-color:#a855f7"/>
      <stop offset="100%" style="stop-color:#06b6d4"/>
    </linearGradient>
  </defs>
  <rect x="4" y="4" width="56" height="56" rx="14" fill="#0f172a"/>
  <path d="M32 18c-5.5 0-10 4.5-10 10v6h-2c-1.1 0-2 .9-2 2v14c0 1.1.9 2 2 2h24c1.1 0 2-.9 2-2V36c0-1.1-.9-2-2-2h-2v-6c0-5.5-4.5-10-10-10zm6 16H26v-6c0-3.3 2.7-6 6-6s6 2.7 6 6v6zm-6 4c1.7 0 3 1.3 3 3 0 1.2-.7 2.2-1.7 2.7V47c0 .7-.6 1.3-1.3 1.3s-1.3-.6-1.3-1.3v-3.3c-1-.5-1.7-1.5-1.7-2.7 0-1.7 1.3-3 3-3z" fill="url(#grad)"/>
</svg>